# xmcd CD database file
#
# Track frame offsets:
#	150
#	14942
#	36621
#	57093
#	74285
#	90849
#	108621
#	126811
#	145195
#	166124
#	184719
#	201716
#	221340
#	234761
#
# Disc length: 3393 seconds
#
# Revision: 1
# Processed by: cddbd v1.5.1PL2 Copyright (c) Steve Scherf et al.
# Submitted via: jetAudio 5
#
DISCID=c90d3f0e
DTITLE=Kevin Fowler - The Best Of Kevin Fowler
DYEAR=1900
DGENRE=
TTITLE0=Lost My Heart in Oklahoma
TTITLE1=Never Say Goodnight
TTITLE2=Next Girl In Line
TTITLE3=Ol' What's Her Name.mp3
TTITLE4=Political Incorrectness
TTITLE5=She Ain't Bad but She Ain't Yo
TTITLE6=Speak of the Devil
TTITLE7=Road Song Medley
TTITLE8=Kevin Fowler - The Lord Knows
TTITLE9=There's A Fool Born Everyday
TTITLE10=Kevin Fowler - True Love
TTITLE11=I Think I'll Just Stay Here &
TTITLE12=Cowboy Up
TTITLE13=You Could've Had It All
EXTD=
EXTT0=
EXTT1=
EXTT2=
EXTT3=
EXTT4=
EXTT5=
EXTT6=
EXTT7=
EXTT8=
EXTT9=
EXTT10=
EXTT11=
EXTT12=
EXTT13=
PLAYORDER=
